<svg width="90" height="65" viewBox="0 0 90 65" fill="none" xmlns="http://www.w3.org/2000/svg">
<g clip-path="url(#clip0_1_6)">
<path d="M32.5089 9.27805C38.1117 9.28676 43.5235 11.3154 47.7514 14.9917L54.3248 8.41831C48.3503 3.02252 40.5862 0.0354614 32.5358 0.0354614C24.4854 0.0354614 16.7213 3.02252 10.7468 8.41831L17.2485 14.9917C21.4811 11.3113 26.9 9.28244 32.5089 9.27805Z" fill="#333F49"/>
<path d="M56.2951 10.3527L49.7217 16.9262C52.9624 20.5304 54.9976 25.0562 55.5434 29.8724C56.0893 34.6885 55.1185 39.555 52.7666 43.7931L39.7451 31.2552L33.8702 17.1053V38.4018L46.7663 50.8143C42.6904 53.9937 37.6693 55.7205 32.5 55.7205C27.3307 55.7205 22.3096 53.9937 18.2337 50.8143L31.1298 38.4018V17.1053L25.2549 31.291L12.2334 43.8289C9.88146 39.5908 8.91073 34.7243 9.45656 29.9082C10.0024 25.092 12.0376 20.5663 15.2783 16.962L8.70488 10.3527C4.39151 14.9864 1.52491 20.7787 0.456962 27.0186C-0.610988 33.2585 0.166178 39.6744 2.69306 45.4789C5.21995 51.2833 9.3866 56.2237 14.6816 59.6935C19.9765 63.1634 26.1694 65.0117 32.5 65.0117C38.8306 65.0117 45.0235 63.1634 50.3184 59.6935C55.6134 56.2237 59.78 51.2833 62.3069 45.4789C64.8338 39.6744 65.611 33.2585 64.543 27.0186C63.4751 20.7787 60.6085 14.9864 56.2951 10.3527Z" fill="#333F49"/>
<path d="M86.8159 18.3232H69.8539C67.9774 13.3945 65.1471 8.88437 61.5252 5.05096L58.5698 8.07797C64.7848 14.6911 68.2447 23.4248 68.2447 32.5C68.2447 41.5752 64.7848 50.3089 58.5698 56.922L61.5968 59.949C65.1968 56.1122 68.003 51.6017 69.8539 46.6768H86.7443C87.1101 46.6863 87.4742 46.6225 87.815 46.4891C88.1558 46.3557 88.4664 46.1553 88.7285 45.8999C88.9906 45.6445 89.1989 45.3391 89.3411 45.0019C89.4833 44.6646 89.5564 44.3023 89.5563 43.9363V21.0636C89.5563 20.3368 89.2676 19.6398 88.7537 19.1259C88.2397 18.6119 87.5427 18.3232 86.8159 18.3232Z" fill="#F06414"/>
<path d="M76.8035 37.9361L83.5381 31.5776C83.9514 31.215 84.3347 30.8197 84.6844 30.3954C85.1522 29.7854 85.4267 29.0493 85.4725 28.2819V26.7595C85.4999 26.5334 85.4999 26.3049 85.4725 26.0788C85.4187 25.8076 85.3346 25.5432 85.2218 25.2907L73.8302 36.0375C73.472 36.3778 73.0959 36.7181 72.7555 37.1122C72.1974 37.745 71.8914 38.561 71.8958 39.4048V41.8049H83.5202C83.9688 41.8065 84.4069 41.6688 84.774 41.4109C85.1854 41.1223 85.513 40.7301 85.7238 40.2739C85.9346 39.8178 86.0209 39.314 85.974 38.8137V37.9361H76.8035ZM84.0038 23.822C83.5469 23.458 82.9757 23.2677 82.3918 23.2847H75.6213C75.4012 23.2585 75.1788 23.2585 74.9586 23.2847C74.5357 23.4221 74.1441 23.6416 73.806 23.9305C73.4679 24.2194 73.1901 24.572 72.9884 24.9683C72.5417 25.7268 72.3181 26.596 72.3436 27.4759V29.267H76.1945V27.0639H80.6007L84.0038 23.822Z" fill="white"/>
<path d="M56.492 59.5729H56.2592V59.9132H56.1517V58.9997H56.5279C56.5655 58.9966 56.6034 59.0021 56.6386 59.0156C56.6739 59.0292 56.7056 59.0506 56.7314 59.0781C56.7572 59.1057 56.7765 59.1387 56.7878 59.1748C56.7991 59.2108 56.8021 59.2489 56.7965 59.2863C56.803 59.3497 56.7867 59.4133 56.7506 59.4658C56.7146 59.5183 56.661 59.5562 56.5995 59.5729L56.8144 59.9132H56.6712L56.492 59.5729ZM56.2592 59.4654H56.51C56.5575 59.4654 56.603 59.4465 56.6366 59.413C56.6702 59.3794 56.6891 59.3338 56.6891 59.2863C56.6891 59.2388 56.6702 59.1932 56.6366 59.1596C56.603 59.1261 56.5575 59.1072 56.51 59.1072H56.2592V59.4654Z" fill="#333F49"/>
<path d="M56.4563 60.3251C56.3381 60.3324 56.2196 60.3157 56.1081 60.276C55.9965 60.2362 55.8941 60.1744 55.8071 60.094C55.7201 60.0137 55.6502 59.9166 55.6017 59.8086C55.5532 59.7005 55.5271 59.5838 55.5249 59.4654C55.5249 59.2279 55.6193 59.0001 55.7872 58.8321C55.9552 58.6642 56.1829 58.5698 56.4205 58.5698C56.658 58.5698 56.8858 58.6642 57.0537 58.8321C57.2217 59.0001 57.316 59.2279 57.316 59.4654C57.3114 59.692 57.2194 59.908 57.0591 60.0682C56.8989 60.2285 56.6829 60.3205 56.4563 60.3251ZM56.4563 58.7131C56.3583 58.7131 56.2613 58.7327 56.1711 58.7707C56.0808 58.8087 55.999 58.8644 55.9306 58.9345C55.8621 59.0046 55.8084 59.0877 55.7726 59.1789C55.7368 59.27 55.7195 59.3675 55.7219 59.4654C55.7219 59.6602 55.7993 59.8469 55.937 59.9847C56.0747 60.1224 56.2615 60.1997 56.4563 60.1997C56.5542 60.2021 56.6516 60.1849 56.7428 60.1491C56.834 60.1132 56.9171 60.0595 56.9872 59.9911C57.0573 59.9227 57.113 59.8409 57.151 59.7506C57.189 59.6603 57.2086 59.5634 57.2086 59.4654C57.2086 59.2659 57.1293 59.0745 56.9882 58.9334C56.8471 58.7924 56.6558 58.7131 56.4563 58.7131Z" fill="#333F49"/>
</g>
<defs>
<clipPath id="clip0_1_6">
<rect width="89.5563" height="65" fill="white"/>
</clipPath>
</defs>
</svg>
